# xmcd
#
# Track frame offsets: 
#        150
#        450
#        15994
#        34899
#        53439
#        70509
#        83306
#        104091
#        121611
#        139321
#        152516
#        162351
#        173884
#        194761
#        215529
#        227641
#        250826
#        264069
#        278304
#        291874
#
# Disc length: 4113 seconds
#
# Revision: 0
# Processed by: cddbd v1.5.2PL0 Copyright (c) Steve Scherf et al.
# Submitted via: ExactAudioCopy v1.3
#
DISCID=f9100f14
DTITLE=Dutch Mason - Special Brew  Gimme A Break
DYEAR=1980
DGENRE=Electric Blues
TTITLE0=Bossman
TTITLE1=Young Fashioned Ways
TTITLE2=Mister Blue
TTITLE3=Honey Hush
TTITLE4=Movin' On
TTITLE5=Come Love
TTITLE6=Linda Lou
TTITLE7=Slo Fried Baloney
TTITLE8=Did You Mess Your Mind
TTITLE9=Wham Bam, Thank You Ma'am
TTITLE10=You Fool Around Too
TTITLE11=Trouble No More
TTITLE12=Nothing Left To Lose
TTITLE13=That's Life
TTITLE14=Tryin' To Find My Baby
TTITLE15=Long Distance Feelin'
TTITLE16=It's All Wrong
TTITLE17=Don't Tell Me
TTITLE18=I Got A Woman
TTITLE19=Go Down Gamblin'
EXTD=
EXTT0=
EXTT1=
EXTT2=
EXTT3=
EXTT4=
EXTT5=
EXTT6=
EXTT7=
EXTT8=
EXTT9=
EXTT10=
EXTT11=
EXTT12=
EXTT13=
EXTT14=
EXTT15=
EXTT16=
EXTT17=
EXTT18=
EXTT19=
PLAYORDER=
